<?xml version="1.0" encoding="UTF-8"?>
<svg xmlns="http://www.w3.org/2000/svg" xmlns:xlink="http://www.w3.org/1999/xlink" width="342pt" height="366pt" viewBox="0 0 342 366" version="1.1">
<defs>
<clipPath id="clip1">
  <path d="M 31 23 L 170 23 L 170 147 L 31 147 Z M 31 23 "/>
</clipPath>
<clipPath id="clip2">
  <path d="M 170.472656 46.648438 C 170.472656 46.648438 153.949219 48.328125 137.421875 39.5 C 120.898438 30.675781 114.855469 23.527344 114.855469 23.527344 C 114.855469 23.527344 91.15625 37.871094 74.632813 40.050781 C 58.109375 42.234375 39.929688 39.5 39.929688 39.5 C 39.929688 39.5 88.398438 100.085938 52.039063 168.390625 C 15.679688 236.695313 -0.0664063 252.941406 30.023438 295.097656 C 52.039063 325.941406 156.679688 329.25 169.921875 329.25 C 183.160156 329.25 288.355469 325.941406 310.371094 295.097656 C 340.460938 252.941406 324.714844 236.695313 288.355469 168.390625 C 251.992188 100.085938 300.464844 39.5 300.464844 39.5 C 300.464844 39.5 282.285156 42.234375 265.761719 40.050781 C 249.234375 37.871094 225.539063 23.527344 225.539063 23.527344 C 225.539063 23.527344 219.496094 30.675781 202.972656 39.5 C 186.445313 48.328125 170.472656 46.648438 170.472656 46.648438 Z M 170.472656 46.648438 "/>
</clipPath>
<clipPath id="clip3">
  <path d="M 14 204 L 327 204 L 327 330 L 14 330 Z M 14 204 "/>
</clipPath>
<clipPath id="clip4">
  <path d="M 170.472656 46.648438 C 170.472656 46.648438 153.949219 48.328125 137.421875 39.5 C 120.898438 30.675781 114.855469 23.527344 114.855469 23.527344 C 114.855469 23.527344 91.15625 37.871094 74.632813 40.050781 C 58.109375 42.234375 39.929688 39.5 39.929688 39.5 C 39.929688 39.5 88.398438 100.085938 52.039063 168.390625 C 15.679688 236.695313 -0.0664063 252.941406 30.023438 295.097656 C 52.039063 325.941406 156.679688 329.25 169.921875 329.25 C 183.160156 329.25 288.355469 325.941406 310.371094 295.097656 C 340.460938 252.941406 324.714844 236.695313 288.355469 168.390625 C 251.992188 100.085938 300.464844 39.5 300.464844 39.5 C 300.464844 39.5 282.285156 42.234375 265.761719 40.050781 C 249.234375 37.871094 225.539063 23.527344 225.539063 23.527344 C 225.539063 23.527344 219.496094 30.675781 202.972656 39.5 C 186.445313 48.328125 170.472656 46.648438 170.472656 46.648438 Z M 170.472656 46.648438 "/>
</clipPath>
<clipPath id="clip5">
  <path d="M 169 23 L 304 23 L 304 150 L 169 150 Z M 169 23 "/>
</clipPath>
<clipPath id="clip6">
  <path d="M 170.472656 46.648438 C 170.472656 46.648438 153.949219 48.328125 137.421875 39.5 C 120.898438 30.675781 114.855469 23.527344 114.855469 23.527344 C 114.855469 23.527344 91.15625 37.871094 74.632813 40.050781 C 58.109375 42.234375 39.929688 39.5 39.929688 39.5 C 39.929688 39.5 88.398438 100.085938 52.039063 168.390625 C 15.679688 236.695313 -0.0664063 252.941406 30.023438 295.097656 C 52.039063 325.941406 156.679688 329.25 169.921875 329.25 C 183.160156 329.25 288.355469 325.941406 310.371094 295.097656 C 340.460938 252.941406 324.714844 236.695313 288.355469 168.390625 C 251.992188 100.085938 300.464844 39.5 300.464844 39.5 C 300.464844 39.5 282.285156 42.234375 265.761719 40.050781 C 249.234375 37.871094 225.539063 23.527344 225.539063 23.527344 C 225.539063 23.527344 219.496094 30.675781 202.972656 39.5 C 186.445313 48.328125 170.472656 46.648438 170.472656 46.648438 Z M 170.472656 46.648438 "/>
</clipPath>
<clipPath id="clip7">
  <path d="M 183 30 L 199 30 L 199 149 L 183 149 Z M 183 30 "/>
</clipPath>
<clipPath id="clip8">
  <path d="M 170.472656 46.648438 C 170.472656 46.648438 153.949219 48.328125 137.421875 39.5 C 120.898438 30.675781 114.855469 23.527344 114.855469 23.527344 C 114.855469 23.527344 91.15625 37.871094 74.632813 40.050781 C 58.109375 42.234375 39.929688 39.5 39.929688 39.5 C 39.929688 39.5 88.398438 100.085938 52.039063 168.390625 C 15.679688 236.695313 -0.0664063 252.941406 30.023438 295.097656 C 52.039063 325.941406 156.679688 329.25 169.921875 329.25 C 183.160156 329.25 288.355469 325.941406 310.371094 295.097656 C 340.460938 252.941406 324.714844 236.695313 288.355469 168.390625 C 251.992188 100.085938 300.464844 39.5 300.464844 39.5 C 300.464844 39.5 282.285156 42.234375 265.761719 40.050781 C 249.234375 37.871094 225.539063 23.527344 225.539063 23.527344 C 225.539063 23.527344 219.496094 30.675781 202.972656 39.5 C 186.445313 48.328125 170.472656 46.648438 170.472656 46.648438 Z M 170.472656 46.648438 "/>
</clipPath>
<clipPath id="clip9">
  <path d="M 207 23 L 224 23 L 224 149 L 207 149 Z M 207 23 "/>
</clipPath>
<clipPath id="clip10">
  <path d="M 170.472656 46.648438 C 170.472656 46.648438 153.949219 48.328125 137.421875 39.5 C 120.898438 30.675781 114.855469 23.527344 114.855469 23.527344 C 114.855469 23.527344 91.15625 37.871094 74.632813 40.050781 C 58.109375 42.234375 39.929688 39.5 39.929688 39.5 C 39.929688 39.5 88.398438 100.085938 52.039063 168.390625 C 15.679688 236.695313 -0.0664063 252.941406 30.023438 295.097656 C 52.039063 325.941406 156.679688 329.25 169.921875 329.25 C 183.160156 329.25 288.355469 325.941406 310.371094 295.097656 C 340.460938 252.941406 324.714844 236.695313 288.355469 168.390625 C 251.992188 100.085938 300.464844 39.5 300.464844 39.5 C 300.464844 39.5 282.285156 42.234375 265.761719 40.050781 C 249.234375 37.871094 225.539063 23.527344 225.539063 23.527344 C 225.539063 23.527344 219.496094 30.675781 202.972656 39.5 C 186.445313 48.328125 170.472656 46.648438 170.472656 46.648438 Z M 170.472656 46.648438 "/>
</clipPath>
<clipPath id="clip11">
  <path d="M 232 23 L 248 23 L 248 149 L 232 149 Z M 232 23 "/>
</clipPath>
<clipPath id="clip12">
  <path d="M 170.472656 46.648438 C 170.472656 46.648438 153.949219 48.328125 137.421875 39.5 C 120.898438 30.675781 114.855469 23.527344 114.855469 23.527344 C 114.855469 23.527344 91.15625 37.871094 74.632813 40.050781 C 58.109375 42.234375 39.929688 39.5 39.929688 39.5 C 39.929688 39.5 88.398438 100.085938 52.039063 168.390625 C 15.679688 236.695313 -0.0664063 252.941406 30.023438 295.097656 C 52.039063 325.941406 156.679688 329.25 169.921875 329.25 C 183.160156 329.25 288.355469 325.941406 310.371094 295.097656 C 340.460938 252.941406 324.714844 236.695313 288.355469 168.390625 C 251.992188 100.085938 300.464844 39.5 300.464844 39.5 C 300.464844 39.5 282.285156 42.234375 265.761719 40.050781 C 249.234375 37.871094 225.539063 23.527344 225.539063 23.527344 C 225.539063 23.527344 219.496094 30.675781 202.972656 39.5 C 186.445313 48.328125 170.472656 46.648438 170.472656 46.648438 Z M 170.472656 46.648438 "/>
</clipPath>
<clipPath id="clip13">
  <path d="M 256 23 L 273 23 L 273 149 L 256 149 Z M 256 23 "/>
</clipPath>
<clipPath id="clip14">
  <path d="M 170.472656 46.648438 C 170.472656 46.648438 153.949219 48.328125 137.421875 39.5 C 120.898438 30.675781 114.855469 23.527344 114.855469 23.527344 C 114.855469 23.527344 91.15625 37.871094 74.632813 40.050781 C 58.109375 42.234375 39.929688 39.5 39.929688 39.5 C 39.929688 39.5 88.398438 100.085938 52.039063 168.390625 C 15.679688 236.695313 -0.0664063 252.941406 30.023438 295.097656 C 52.039063 325.941406 156.679688 329.25 169.921875 329.25 C 183.160156 329.25 288.355469 325.941406 310.371094 295.097656 C 340.460938 252.941406 324.714844 236.695313 288.355469 168.390625 C 251.992188 100.085938 300.464844 39.5 300.464844 39.5 C 300.464844 39.5 282.285156 42.234375 265.761719 40.050781 C 249.234375 37.871094 225.539063 23.527344 225.539063 23.527344 C 225.539063 23.527344 219.496094 30.675781 202.972656 39.5 C 186.445313 48.328125 170.472656 46.648438 170.472656 46.648438 Z M 170.472656 46.648438 "/>
</clipPath>
<clipPath id="clip15">
  <path d="M 61 202 L 109 202 L 109 330 L 61 330 Z M 61 202 "/>
</clipPath>
<clipPath id="clip16">
  <path d="M 170.472656 46.648438 C 170.472656 46.648438 153.949219 48.328125 137.421875 39.5 C 120.898438 30.675781 114.855469 23.527344 114.855469 23.527344 C 114.855469 23.527344 91.15625 37.871094 74.632813 40.050781 C 58.109375 42.234375 39.929688 39.5 39.929688 39.5 C 39.929688 39.5 88.398438 100.085938 52.039063 168.390625 C 15.679688 236.695313 -0.0664063 252.941406 30.023438 295.097656 C 52.039063 325.941406 156.679688 329.25 169.921875 329.25 C 183.160156 329.25 288.355469 325.941406 310.371094 295.097656 C 340.460938 252.941406 324.714844 236.695313 288.355469 168.390625 C 251.992188 100.085938 300.464844 39.5 300.464844 39.5 C 300.464844 39.5 282.285156 42.234375 265.761719 40.050781 C 249.234375 37.871094 225.539063 23.527344 225.539063 23.527344 C 225.539063 23.527344 219.496094 30.675781 202.972656 39.5 C 186.445313 48.328125 170.472656 46.648438 170.472656 46.648438 Z M 170.472656 46.648438 "/>
</clipPath>
<clipPath id="clip17">
  <path d="M 145 202 L 192 202 L 192 330 L 145 330 Z M 145 202 "/>
</clipPath>
<clipPath id="clip18">
  <path d="M 170.472656 46.648438 C 170.472656 46.648438 153.949219 48.328125 137.421875 39.5 C 120.898438 30.675781 114.855469 23.527344 114.855469 23.527344 C 114.855469 23.527344 91.15625 37.871094 74.632813 40.050781 C 58.109375 42.234375 39.929688 39.5 39.929688 39.5 C 39.929688 39.5 88.398438 100.085938 52.039063 168.390625 C 15.679688 236.695313 -0.0664063 252.941406 30.023438 295.097656 C 52.039063 325.941406 156.679688 329.25 169.921875 329.25 C 183.160156 329.25 288.355469 325.941406 310.371094 295.097656 C 340.460938 252.941406 324.714844 236.695313 288.355469 168.390625 C 251.992188 100.085938 300.464844 39.5 300.464844 39.5 C 300.464844 39.5 282.285156 42.234375 265.761719 40.050781 C 249.234375 37.871094 225.539063 23.527344 225.539063 23.527344 C 225.539063 23.527344 219.496094 30.675781 202.972656 39.5 C 186.445313 48.328125 170.472656 46.648438 170.472656 46.648438 Z M 170.472656 46.648438 "/>
</clipPath>
<clipPath id="clip19">
  <path d="M 229 202 L 276 202 L 276 330 L 229 330 Z M 229 202 "/>
</clipPath>
<clipPath id="clip20">
  <path d="M 170.472656 46.648438 C 170.472656 46.648438 153.949219 48.328125 137.421875 39.5 C 120.898438 30.675781 114.855469 23.527344 114.855469 23.527344 C 114.855469 23.527344 91.15625 37.871094 74.632813 40.050781 C 58.109375 42.234375 39.929688 39.5 39.929688 39.5 C 39.929688 39.5 88.398438 100.085938 52.039063 168.390625 C 15.679688 236.695313 -0.0664063 252.941406 30.023438 295.097656 C 52.039063 325.941406 156.679688 329.25 169.921875 329.25 C 183.160156 329.25 288.355469 325.941406 310.371094 295.097656 C 340.460938 252.941406 324.714844 236.695313 288.355469 168.390625 C 251.992188 100.085938 300.464844 39.5 300.464844 39.5 C 300.464844 39.5 282.285156 42.234375 265.761719 40.050781 C 249.234375 37.871094 225.539063 23.527344 225.539063 23.527344 C 225.539063 23.527344 219.496094 30.675781 202.972656 39.5 C 186.445313 48.328125 170.472656 46.648438 170.472656 46.648438 Z M 170.472656 46.648438 "/>
</clipPath>
<clipPath id="clip21">
  <path d="M 54 23 L 170 23 L 170 150 L 54 150 Z M 54 23 "/>
</clipPath>
<clipPath id="clip22">
  <path d="M 170.472656 46.648438 C 170.472656 46.648438 153.949219 48.328125 137.421875 39.5 C 120.898438 30.675781 114.855469 23.527344 114.855469 23.527344 C 114.855469 23.527344 91.15625 37.871094 74.632813 40.050781 C 58.109375 42.234375 39.929688 39.5 39.929688 39.5 C 39.929688 39.5 88.398438 100.085938 52.039063 168.390625 C 15.679688 236.695313 -0.0664063 252.941406 30.023438 295.097656 C 52.039063 325.941406 156.679688 329.25 169.921875 329.25 C 183.160156 329.25 288.355469 325.941406 310.371094 295.097656 C 340.460938 252.941406 324.714844 236.695313 288.355469 168.390625 C 251.992188 100.085938 300.464844 39.5 300.464844 39.5 C 300.464844 39.5 282.285156 42.234375 265.761719 40.050781 C 249.234375 37.871094 225.539063 23.527344 225.539063 23.527344 C 225.539063 23.527344 219.496094 30.675781 202.972656 39.5 C 186.445313 48.328125 170.472656 46.648438 170.472656 46.648438 Z M 170.472656 46.648438 "/>
</clipPath>
<clipPath id="clip23">
  <path d="M 26 147 L 314 147 L 314 207 L 26 207 Z M 26 147 "/>
</clipPath>
<clipPath id="clip24">
  <path d="M 170.472656 46.648438 C 170.472656 46.648438 153.949219 48.328125 137.421875 39.5 C 120.898438 30.675781 114.855469 23.527344 114.855469 23.527344 C 114.855469 23.527344 91.15625 37.871094 74.632813 40.050781 C 58.109375 42.234375 39.929688 39.5 39.929688 39.5 C 39.929688 39.5 88.398438 100.085938 52.039063 168.390625 C 15.679688 236.695313 -0.0664063 252.941406 30.023438 295.097656 C 52.039063 325.941406 156.679688 329.25 169.921875 329.25 C 183.160156 329.25 288.355469 325.941406 310.371094 295.097656 C 340.460938 252.941406 324.714844 236.695313 288.355469 168.390625 C 251.992188 100.085938 300.464844 39.5 300.464844 39.5 C 300.464844 39.5 282.285156 42.234375 265.761719 40.050781 C 249.234375 37.871094 225.539063 23.527344 225.539063 23.527344 C 225.539063 23.527344 219.496094 30.675781 202.972656 39.5 C 186.445313 48.328125 170.472656 46.648438 170.472656 46.648438 Z M 170.472656 46.648438 "/>
</clipPath>
<clipPath id="clip25">
  <path d="M 25 146 L 315 146 L 315 208 L 25 208 Z M 25 146 "/>
</clipPath>
<clipPath id="clip26">
  <path d="M 170.472656 46.648438 C 170.472656 46.648438 153.949219 48.328125 137.421875 39.5 C 120.898438 30.675781 114.855469 23.527344 114.855469 23.527344 C 114.855469 23.527344 91.15625 37.871094 74.632813 40.050781 C 58.109375 42.234375 39.929688 39.5 39.929688 39.5 C 39.929688 39.5 88.398438 100.085938 52.039063 168.390625 C 15.679688 236.695313 -0.0664063 252.941406 30.023438 295.097656 C 52.039063 325.941406 156.679688 329.25 169.921875 329.25 C 183.160156 329.25 288.355469 325.941406 310.371094 295.097656 C 340.460938 252.941406 324.714844 236.695313 288.355469 168.390625 C 251.992188 100.085938 300.464844 39.5 300.464844 39.5 C 300.464844 39.5 282.285156 42.234375 265.761719 40.050781 C 249.234375 37.871094 225.539063 23.527344 225.539063 23.527344 C 225.539063 23.527344 219.496094 30.675781 202.972656 39.5 C 186.445313 48.328125 170.472656 46.648438 170.472656 46.648438 Z M 170.472656 46.648438 "/>
</clipPath>
<clipPath id="clip27">
  <path d="M 142 227 L 176 227 L 176 261 L 142 261 Z M 142 227 "/>
</clipPath>
<clipPath id="clip28">
  <path d="M 126.15625 268.835938 C 126.15625 244.960938 145.511719 225.601563 169.386719 225.601563 C 193.265625 225.601563 212.621094 244.960938 212.621094 268.835938 C 212.621094 292.710938 193.265625 312.066406 169.386719 312.066406 C 145.511719 312.066406 126.15625 292.710938 126.15625 268.835938 Z M 126.15625 268.835938 "/>
</clipPath>
<clipPath id="clip29">
  <path d="M 137 225 L 168 225 L 168 251 L 137 251 Z M 137 225 "/>
</clipPath>
<clipPath id="clip30">
  <path d="M 126.15625 268.835938 C 126.15625 244.960938 145.511719 225.601563 169.386719 225.601563 C 193.265625 225.601563 212.621094 244.960938 212.621094 268.835938 C 212.621094 292.710938 193.265625 312.066406 169.386719 312.066406 C 145.511719 312.066406 126.15625 292.710938 126.15625 268.835938 Z M 126.15625 268.835938 "/>
</clipPath>
<clipPath id="clip31">
  <path d="M 149 225 L 176 225 L 176 251 L 149 251 Z M 149 225 "/>
</clipPath>
<clipPath id="clip32">
  <path d="M 126.15625 268.835938 C 126.15625 244.960938 145.511719 225.601563 169.386719 225.601563 C 193.265625 225.601563 212.621094 244.960938 212.621094 268.835938 C 212.621094 292.710938 193.265625 312.066406 169.386719 312.066406 C 145.511719 312.066406 126.15625 292.710938 126.15625 268.835938 Z M 126.15625 268.835938 "/>
</clipPath>
<clipPath id="clip33">
  <path d="M 150 225 L 202 225 L 202 252 L 150 252 Z M 150 225 "/>
</clipPath>
<clipPath id="clip34">
  <path d="M 126.15625 268.835938 C 126.15625 244.960938 145.511719 225.601563 169.386719 225.601563 C 193.265625 225.601563 212.621094 244.960938 212.621094 268.835938 C 212.621094 292.710938 193.265625 312.066406 169.386719 312.066406 C 145.511719 312.066406 126.15625 292.710938 126.15625 268.835938 Z M 126.15625 268.835938 "/>
</clipPath>
<clipPath id="clip35">
  <path d="M 152 232 L 213 232 L 213 279 L 152 279 Z M 152 232 "/>
</clipPath>
<clipPath id="clip36">
  <path d="M 126.15625 268.835938 C 126.15625 244.960938 145.511719 225.601563 169.386719 225.601563 C 193.265625 225.601563 212.621094 244.960938 212.621094 268.835938 C 212.621094 292.710938 193.265625 312.066406 169.386719 312.066406 C 145.511719 312.066406 126.15625 292.710938 126.15625 268.835938 Z M 126.15625 268.835938 "/>
</clipPath>
<clipPath id="clip37">
  <path d="M 151 235 L 200 235 L 200 313 L 151 313 Z M 151 235 "/>
</clipPath>
<clipPath id="clip38">
  <path d="M 126.15625 268.835938 C 126.15625 244.960938 145.511719 225.601563 169.386719 225.601563 C 193.265625 225.601563 212.621094 244.960938 212.621094 268.835938 C 212.621094 292.710938 193.265625 312.066406 169.386719 312.066406 C 145.511719 312.066406 126.15625 292.710938 126.15625 268.835938 Z M 126.15625 268.835938 "/>
</clipPath>
<clipPath id="clip39">
  <path d="M 139 236 L 169 236 L 169 313 L 139 313 Z M 139 236 "/>
</clipPath>
<clipPath id="clip40">
  <path d="M 126.15625 268.835938 C 126.15625 244.960938 145.511719 225.601563 169.386719 225.601563 C 193.265625 225.601563 212.621094 244.960938 212.621094 268.835938 C 212.621094 292.710938 193.265625 312.066406 169.386719 312.066406 C 145.511719 312.066406 126.15625 292.710938 126.15625 268.835938 Z M 126.15625 268.835938 "/>
</clipPath>
<clipPath id="clip41">
  <path d="M 126 233 L 166 233 L 166 280 L 126 280 Z M 126 233 "/>
</clipPath>
<clipPath id="clip42">
  <path d="M 126.15625 268.835938 C 126.15625 244.960938 145.511719 225.601563 169.386719 225.601563 C 193.265625 225.601563 212.621094 244.960938 212.621094 268.835938 C 212.621094 292.710938 193.265625 312.066406 169.386719 312.066406 C 145.511719 312.066406 126.15625 292.710938 126.15625 268.835938 Z M 126.15625 268.835938 "/>
</clipPath>
<clipPath id="clip43">
  <path d="M 126 226 L 166 226 L 166 254 L 126 254 Z M 126 226 "/>
</clipPath>
<clipPath id="clip44">
  <path d="M 126.15625 268.835938 C 126.15625 244.960938 145.511719 225.601563 169.386719 225.601563 C 193.265625 225.601563 212.621094 244.960938 212.621094 268.835938 C 212.621094 292.710938 193.265625 312.066406 169.386719 312.066406 C 145.511719 312.066406 126.15625 292.710938 126.15625 268.835938 Z M 126.15625 268.835938 "/>
</clipPath>
</defs>
<g id="surface1">
<path style=" stroke:none;fill-rule:evenodd;fill:rgb(13.699341%,12.199402%,12.5%);fill-opacity:1;" d="M 170.402344 36.703125 C 170.402344 36.703125 157.773438 38.902344 142.902344 26.765625 C 128.035156 14.628906 119.757813 7.484375 119.757813 7.484375 C 119.757813 7.484375 86.15625 25.664063 71.289063 27.871094 C 56.417969 30.078125 33.847656 27.316406 33.847656 27.316406 L 26.679688 41.085938 C 26.679688 41.085938 54.738281 84.589844 52.003906 103.875 C 49.273438 123.15625 45.363281 134.359375 32.195313 128.675781 C 21.230469 123.9375 18.332031 121.6875 18.332031 121.6875 C 18.332031 121.6875 15.375 124.285156 15.902344 130.878906 C 16.429688 137.476563 21.875 138.441406 21.875 138.441406 C 21.875 138.441406 15.742188 141.019531 16.226563 144.097656 C 16.734375 147.324219 21.714844 147.957031 23.917969 147.40625 C 26.125 146.855469 15.117188 156.785156 15.117188 165.585938 C 15.117188 174.386719 15.507813 177.421875 18.171875 177.421875 C 23.480469 177.421875 22.515625 163.726563 28.332031 157.863281 C 33.714844 152.4375 37.6875 152.898438 37.6875 152.898438 C 37.6875 152.898438 34.929688 160.070313 38.238281 161.171875 C 41.546875 162.273438 45.960938 156.757813 45.960938 156.757813 C 45.960938 156.757813 44.832031 171.101563 35.480469 181.007813 C 26.125 190.910156 13.699219 199.65625 9.601563 191.464844 C 6.292969 184.84375 -0.304688 204.679688 11.808594 206.886719 C 23.917969 209.09375 21.160156 207.988281 21.160156 207.988281 C 21.160156 207.988281 4.085938 226.71875 4.085938 261.976563 C 4.085938 297.234375 27.253906 319.800781 49.273438 328.628906 C 71.289063 337.453125 126.402344 340.210938 135.203125 349.566406 C 144.007813 358.917969 142.902344 365.539063 142.902344 365.539063 C 142.902344 365.539063 153.386719 362.757813 151.179688 355.058594 C 148.972656 347.359375 143.457031 341.289063 143.457031 341.289063 C 143.457031 341.289063 165.472656 355.058594 172.644531 355.058594 C 179.816406 355.058594 201.832031 341.289063 201.832031 341.289063 C 201.832031 341.289063 196.316406 347.359375 194.109375 355.058594 C 191.902344 362.757813 202.382813 365.539063 202.382813 365.539063 C 202.382813 365.539063 201.28125 358.917969 210.082031 349.566406 C 218.882813 340.210938 274 337.453125 296.015625 328.628906 C 318.03125 319.800781 341.203125 297.234375 341.203125 261.976563 C 341.203125 226.71875 324.125 207.988281 324.125 207.988281 C 324.125 207.988281 321.367188 209.09375 333.480469 206.886719 C 345.589844 204.679688 338.996094 184.84375 335.6875 191.464844 C 331.589844 199.65625 319.160156 190.910156 309.808594 181.007813 C 300.453125 171.101563 299.324219 156.757813 299.324219 156.757813 C 299.324219 156.757813 303.738281 162.273438 307.050781 161.171875 C 310.359375 160.070313 307.601563 152.898438 307.601563 152.898438 C 307.601563 152.898438 311.570313 152.4375 316.953125 157.863281 C 322.769531 163.726563 321.808594 177.421875 327.117188 177.421875 C 329.78125 177.421875 330.171875 174.386719 330.171875 165.585938 C 330.171875 156.785156 319.160156 146.855469 321.367188 147.40625 C 323.574219 147.957031 328.554688 147.324219 329.0625 144.097656 C 329.546875 141.019531 323.414063 138.441406 323.414063 138.441406 C 323.414063 138.441406 328.859375 137.476563 329.386719 130.878906 C 329.914063 124.285156 326.953125 121.6875 326.953125 121.6875 C 326.953125 121.6875 324.058594 123.9375 313.09375 128.675781 C 299.925781 134.359375 296.015625 123.15625 293.28125 103.875 C 290.550781 84.589844 318.609375 41.085938 318.609375 41.085938 L 311.4375 27.316406 C 311.4375 27.316406 288.871094 30.078125 274 27.871094 C 259.128906 25.664063 225.527344 7.484375 225.527344 7.484375 C 225.527344 7.484375 217.253906 14.628906 202.382813 26.765625 C 187.511719 38.902344 170.402344 36.703125 170.402344 36.703125 "/>
<path style=" stroke:none;fill-rule:evenodd;fill:rgb(91.398621%,74.099731%,28.599548%);fill-opacity:1;" d="M 167.679688 31.257813 C 167.679688 31.257813 155.050781 33.457031 140.179688 21.320313 C 125.3125 9.183594 117.035156 2.035156 117.035156 2.035156 C 117.035156 2.035156 83.433594 20.21875 68.566406 22.425781 C 53.695313 24.628906 31.128906 21.871094 31.128906 21.871094 L 23.957031 35.640625 C 23.957031 35.640625 52.015625 79.144531 49.28125 98.429688 C 46.546875 117.710938 42.640625 128.914063 29.472656 123.226563 C 18.507813 118.492188 15.609375 116.238281 15.609375 116.238281 C 15.609375 116.238281 12.652344 118.839844 13.179688 125.433594 C 13.707031 132.03125 19.152344 132.996094 19.152344 132.996094 C 19.152344 132.996094 13.019531 135.570313 13.503906 138.652344 C 14.011719 141.878906 18.992188 142.511719 21.195313 141.960938 C 23.402344 141.40625 12.394531 151.339844 12.394531 160.140625 C 12.394531 168.941406 12.785156 171.976563 15.449219 171.976563 C 20.757813 171.976563 19.792969 158.277344 25.609375 152.414063 C 30.992188 146.992188 34.964844 147.453125 34.964844 147.453125 C 34.964844 147.453125 32.207031 154.621094 35.515625 155.726563 C 38.824219 156.828125 43.238281 151.3125 43.238281 151.3125 C 43.238281 151.3125 42.109375 165.65625 32.757813 175.5625 C 23.402344 185.464844 10.976563 194.210938 6.878906 186.019531 C 3.570313 179.398438 -3.027344 199.230469 9.085938 201.4375 C 21.195313 203.644531 18.4375 202.542969 18.4375 202.542969 C 18.4375 202.542969 1.363281 221.273438 1.363281 256.53125 C 1.363281 291.785156 24.53125 314.355469 46.546875 323.179688 C 68.566406 332.007813 123.679688 334.765625 132.484375 344.121094 C 141.285156 353.472656 140.179688 360.09375 140.179688 360.09375 C 140.179688 360.09375 150.664063 357.308594 148.457031 349.613281 C 146.25 341.914063 140.734375 335.84375 140.734375 335.84375 C 140.734375 335.84375 162.75 349.613281 169.921875 349.613281 C 177.09375 349.613281 199.109375 335.84375 199.109375 335.84375 C 199.109375 335.84375 193.59375 341.914063 191.386719 349.613281 C 189.179688 357.308594 199.660156 360.09375 199.660156 360.09375 C 199.660156 360.09375 198.558594 353.472656 207.359375 344.121094 C 216.160156 334.765625 271.277344 332.007813 293.292969 323.179688 C 315.308594 314.355469 338.480469 291.785156 338.480469 256.53125 C 338.480469 221.273438 321.402344 202.542969 321.402344 202.542969 C 321.402344 202.542969 318.644531 203.644531 330.757813 201.4375 C 342.867188 199.230469 336.273438 179.398438 332.964844 186.019531 C 328.867188 194.210938 316.4375 185.464844 307.085938 175.5625 C 297.730469 165.65625 296.601563 151.3125 296.601563 151.3125 C 296.601563 151.3125 301.015625 156.828125 304.328125 155.726563 C 307.636719 154.621094 304.878906 147.453125 304.878906 147.453125 C 304.878906 147.453125 308.847656 146.992188 314.230469 152.414063 C 320.046875 158.277344 319.085938 171.976563 324.394531 171.976563 C 327.058594 171.976563 327.445313 168.941406 327.445313 160.140625 C 327.445313 151.339844 316.4375 141.40625 318.644531 141.960938 C 320.851563 142.511719 325.832031 141.878906 326.339844 138.652344 C 326.820313 135.570313 320.691406 132.996094 320.691406 132.996094 C 320.691406 132.996094 326.136719 132.03125 326.664063 125.433594 C 327.191406 118.839844 324.230469 116.238281 324.230469 116.238281 C 324.230469 116.238281 321.335938 118.492188 310.371094 123.226563 C 297.203125 128.914063 293.292969 117.710938 290.558594 98.429688 C 287.828125 79.144531 315.886719 35.640625 315.886719 35.640625 L 308.714844 21.871094 C 308.714844 21.871094 286.148438 24.628906 271.277344 22.425781 C 256.40625 20.21875 222.804688 2.035156 222.804688 2.035156 C 222.804688 2.035156 214.53125 9.183594 199.660156 21.320313 C 184.789063 33.457031 167.679688 31.257813 167.679688 31.257813 "/>
<path style="fill:none;stroke-width:21.3457;stroke-linecap:butt;stroke-linejoin:miter;stroke:rgb(13.699341%,12.199402%,12.5%);stroke-opacity:1;stroke-miterlimit:3.86371;" d="M 1676.796875 3347.421875 C 1676.796875 3347.421875 1550.507813 3325.429688 1401.796875 3446.796875 C 1253.125 3568.164063 1170.351563 3639.648438 1170.351563 3639.648438 C 1170.351563 3639.648438 834.335938 3457.8125 685.664063 3435.742188 C 536.953125 3413.710938 311.289063 3441.289063 311.289063 3441.289063 L 239.570313 3303.59375 C 239.570313 3303.59375 520.15625 2868.554688 492.8125 2675.703125 C 465.46875 2482.890625 426.40625 2370.859375 294.726563 2427.734375 C 185.078125 2475.078125 156.09375 2497.617188 156.09375 2497.617188 C 156.09375 2497.617188 126.523438 2471.601563 131.796875 2405.664063 C 137.070313 2339.6875 191.523438 2330.039063 191.523438 2330.039063 C 191.523438 2330.039063 130.195313 2304.296875 135.039063 2273.476563 C 140.117188 2241.210938 189.921875 2234.882813 211.953125 2240.390625 C 234.023438 2245.9375 123.945313 2146.601563 123.945313 2058.59375 C 123.945313 1970.585938 127.851563 1940.234375 154.492188 1940.234375 C 207.578125 1940.234375 197.929688 2077.226563 256.09375 2135.859375 C 309.921875 2190.078125 349.648438 2185.46875 349.648438 2185.46875 C 349.648438 2185.46875 322.070313 2113.789063 355.15625 2102.734375 C 388.242188 2091.71875 432.382813 2146.875 432.382813 2146.875 C 432.382813 2146.875 421.09375 2003.4375 327.578125 1904.375 C 234.023438 1805.351563 109.765625 1717.890625 68.789063 1799.804688 C 35.703125 1866.015625 -30.273438 1667.695313 90.859375 1645.625 C 211.953125 1623.554688 184.375 1634.570313 184.375 1634.570313 C 184.375 1634.570313 13.632813 1447.265625 13.632813 1094.6875 C 13.632813 742.148438 245.3125 516.445313 465.46875 428.203125 C 685.664063 339.921875 1236.796875 312.34375 1324.84375 218.789063 C 1412.851563 125.273438 1401.796875 59.0625 1401.796875 59.0625 C 1401.796875 59.0625 1506.640625 86.914063 1484.570313 163.867188 C 1462.5 240.859375 1407.34375 301.5625 1407.34375 301.5625 C 1407.34375 301.5625 1627.5 163.867188 1699.21875 163.867188 C 1770.9375 163.867188 1991.09375 301.5625 1991.09375 301.5625 C 1991.09375 301.5625 1935.9375 240.859375 1913.867188 163.867188 C 1891.796875 86.914063 1996.601563 59.0625 1996.601563 59.0625 C 1996.601563 59.0625 1985.585938 125.273438 2073.59375 218.789063 C 2161.601563 312.34375 2712.773438 339.921875 2932.929688 428.203125 C 3153.085938 516.445313 3384.804688 742.148438 3384.804688 1094.6875 C 3384.804688 1447.265625 3214.023438 1634.570313 3214.023438 1634.570313 C 3214.023438 1634.570313 3186.445313 1623.554688 3307.578125 1645.625 C 3428.671875 1667.695313 3362.734375 1866.015625 3329.648438 1799.804688 C 3288.671875 1717.890625 3164.375 1805.351563 3070.859375 1904.375 C 2977.304688 2003.4375 2966.015625 2146.875 2966.015625 2146.875 C 2966.015625 2146.875 3010.15625 2091.71875 3043.28125 2102.734375 C 3076.367188 2113.789063 3048.789063 2185.46875 3048.789063 2185.46875 C 3048.789063 2185.46875 3088.476563 2190.078125 3142.304688 2135.859375 C 3200.46875 2077.226563 3190.859375 1940.234375 3243.945313 1940.234375 C 3270.585938 1940.234375 3274.453125 1970.585938 3274.453125 2058.59375 C 3274.453125 2146.601563 3164.375 2245.9375 3186.445313 2240.390625 C 3208.515625 2234.882813 3258.320313 2241.210938 3263.398438 2273.476563 C 3268.203125 2304.296875 3206.914063 2330.039063 3206.914063 2330.039063 C 3206.914063 2330.039063 3261.367188 2339.6875 3266.640625 2405.664063 C 3271.914063 2471.601563 3242.304688 2497.617188 3242.304688 2497.617188 C 3242.304688 2497.617188 3213.359375 2475.078125 3103.710938 2427.734375 C 2972.03125 2370.859375 2932.929688 2482.890625 2905.585938 2675.703125 C 2878.28125 2868.554688 3158.867188 3303.59375 3158.867188 3303.59375 L 3087.148438 3441.289063 C 3087.148438 3441.289063 2861.484375 3413.710938 2712.773438 3435.742188 C 2564.0625 3457.8125 2228.046875 3639.648438 2228.046875 3639.648438 C 2228.046875 3639.648438 2145.3125 3568.164063 1996.601563 3446.796875 C 1847.890625 3325.429688 1676.796875 3347.421875 1676.796875 3347.421875 Z M 1676.796875 3347.421875 " transform="matrix(0.1,0,0,-0.1,0,366)"/>
<g clip-path="url(#clip1)" clip-rule="nonzero">
<g clip-path="url(#clip2)" clip-rule="nonzero">
<path style=" stroke:none;fill-rule:nonzero;fill:rgb(100%,100%,100%);fill-opacity:1;" d="M 31.390625 13.152344 L 169.921875 13.152344 L 169.921875 146.5625 L 31.390625 146.5625 L 31.390625 13.152344 "/>
</g>
</g>
<g clip-path="url(#clip3)" clip-rule="nonzero">
<g clip-path="url(#clip4)" clip-rule="nonzero">
<path style=" stroke:none;fill-rule:nonzero;fill:rgb(33.699036%,30.599976%,32.499695%);fill-opacity:1;" d="M 11.1875 204.199219 L 331.851563 204.199219 L 331.851563 336.480469 L 11.1875 336.480469 L 11.1875 204.199219 "/>
</g>
</g>
<g clip-path="url(#clip5)" clip-rule="nonzero">
<g clip-path="url(#clip6)" clip-rule="nonzero">
<path style=" stroke:none;fill-rule:nonzero;fill:rgb(97.599792%,85.899353%,0%);fill-opacity:1;" d="M 169.921875 23.390625 L 303.109375 23.390625 L 303.109375 149.722656 L 169.921875 149.722656 L 169.921875 23.390625 "/>
</g>
</g>
<g clip-path="url(#clip7)" clip-rule="nonzero">
<g clip-path="url(#clip8)" clip-rule="nonzero">
<path style=" stroke:none;fill-rule:nonzero;fill:rgb(88.999939%,10.598755%,13.299561%);fill-opacity:1;" d="M 183.015625 30.1875 L 198.488281 30.1875 L 198.488281 148.097656 L 183.015625 148.097656 L 183.015625 30.1875 "/>
</g>
</g>
<g clip-path="url(#clip9)" clip-rule="nonzero">
<g clip-path="url(#clip10)" clip-rule="nonzero">
<path style=" stroke:none;fill-rule:nonzero;fill:rgb(88.999939%,10.598755%,13.299561%);fill-opacity:1;" d="M 207.667969 20.628906 L 223.140625 20.628906 L 223.140625 148.097656 L 207.667969 148.097656 L 207.667969 20.628906 "/>
</g>
</g>
<g clip-path="url(#clip11)" clip-rule="nonzero">
<g clip-path="url(#clip12)" clip-rule="nonzero">
<path style=" stroke:none;fill-rule:nonzero;fill:rgb(88.999939%,10.598755%,13.299561%);fill-opacity:1;" d="M 232.320313 20.628906 L 247.789063 20.628906 L 247.789063 148.097656 L 232.320313 148.097656 L 232.320313 20.628906 "/>
</g>
</g>
<g clip-path="url(#clip13)" clip-rule="nonzero">
<g clip-path="url(#clip14)" clip-rule="nonzero">
<path style=" stroke:none;fill-rule:nonzero;fill:rgb(88.999939%,10.598755%,13.299561%);fill-opacity:1;" d="M 256.972656 20.628906 L 272.441406 20.628906 L 272.441406 148.097656 L 256.972656 148.097656 L 256.972656 20.628906 "/>
</g>
</g>
<g clip-path="url(#clip15)" clip-rule="nonzero">
<g clip-path="url(#clip16)" clip-rule="nonzero">
<path style=" stroke:none;fill-rule:nonzero;fill:rgb(74.499512%,25.099182%,20.399475%);fill-opacity:1;" d="M 61.875 202.03125 L 108.234375 202.03125 L 108.234375 329.683594 L 61.875 329.683594 L 61.875 202.03125 "/>
</g>
</g>
<g clip-path="url(#clip17)" clip-rule="nonzero">
<g clip-path="url(#clip18)" clip-rule="nonzero">
<path style=" stroke:none;fill-rule:nonzero;fill:rgb(74.499512%,25.099182%,20.399475%);fill-opacity:1;" d="M 145.632813 202.03125 L 191.992188 202.03125 L 191.992188 329.683594 L 145.632813 329.683594 L 145.632813 202.03125 "/>
</g>
</g>
<g clip-path="url(#clip19)" clip-rule="nonzero">
<g clip-path="url(#clip20)" clip-rule="nonzero">
<path style=" stroke:none;fill-rule:nonzero;fill:rgb(74.499512%,25.099182%,20.399475%);fill-opacity:1;" d="M 229.394531 202.03125 L 275.753906 202.03125 L 275.753906 329.683594 L 229.394531 329.683594 L 229.394531 202.03125 "/>
</g>
</g>
<g clip-path="url(#clip21)" clip-rule="nonzero">
<g clip-path="url(#clip22)" clip-rule="nonzero">
<path style=" stroke:none;fill-rule:nonzero;fill:rgb(88.999939%,10.598755%,13.299561%);fill-opacity:1;" d="M 97.652344 17.980469 L 141.304688 17.980469 L 141.304688 69.210938 L 169.921875 69.210938 L 169.921875 111.238281 L 141.304688 111.238281 L 141.304688 149.722656 L 97.652344 149.722656 L 97.652344 111.238281 L 54.300781 111.238281 L 54.300781 69.210938 L 97.652344 69.210938 L 97.652344 17.980469 "/>
</g>
</g>
<g clip-path="url(#clip23)" clip-rule="nonzero">
<g clip-path="url(#clip24)" clip-rule="nonzero">
<path style=" stroke:none;fill-rule:nonzero;fill:rgb(100%,100%,100%);fill-opacity:1;" d="M 26.640625 147.558594 L 313.152344 147.558594 L 313.152344 206.902344 L 26.640625 206.902344 L 26.640625 147.558594 "/>
</g>
</g>
<g clip-path="url(#clip25)" clip-rule="nonzero">
<g clip-path="url(#clip26)" clip-rule="nonzero">
<path style="fill:none;stroke-width:21.3457;stroke-linecap:butt;stroke-linejoin:miter;stroke:rgb(13.699341%,12.199402%,12.5%);stroke-opacity:1;stroke-miterlimit:3.86371;" d="M 266.40625 2184.414063 L 3131.523438 2184.414063 L 3131.523438 1590.976563 L 266.40625 1590.976563 Z M 266.40625 2184.414063 " transform="matrix(0.1,0,0,-0.1,0,366)"/>
</g>
</g>
<path style=" stroke:none;fill-rule:nonzero;fill:rgb(91.398621%,74.099731%,28.599548%);fill-opacity:1;" d="M 126.15625 268.835938 C 126.15625 244.960938 145.511719 225.601563 169.386719 225.601563 C 193.265625 225.601563 212.621094 244.960938 212.621094 268.835938 C 212.621094 292.710938 193.265625 312.066406 169.386719 312.066406 C 145.511719 312.066406 126.15625 292.710938 126.15625 268.835938 "/>
<g clip-path="url(#clip27)" clip-rule="nonzero">
<g clip-path="url(#clip28)" clip-rule="nonzero">
<path style="fill:none;stroke-width:21.3457;stroke-linecap:butt;stroke-linejoin:miter;stroke:rgb(13.699341%,12.199402%,12.5%);stroke-opacity:1;stroke-miterlimit:3.86371;" d="M 1537.65625 1222.578125 C 1537.65625 1250.117188 1559.960938 1272.421875 1587.539063 1272.421875 C 1615.078125 1272.421875 1637.382813 1250.117188 1637.382813 1222.578125 C 1637.382813 1195.039063 1615.078125 1172.695313 1587.539063 1172.695313 C 1559.960938 1172.695313 1537.65625 1195.039063 1537.65625 1222.578125 Z M 1537.65625 1222.578125 " transform="matrix(0.1,0,0,-0.1,0,366)"/>
</g>
</g>
<g clip-path="url(#clip29)" clip-rule="nonzero">
<g clip-path="url(#clip30)" clip-rule="nonzero">
<path style="fill:none;stroke-width:21.3457;stroke-linecap:butt;stroke-linejoin:miter;stroke:rgb(13.699341%,12.199402%,12.5%);stroke-opacity:1;stroke-miterlimit:3.86371;" d="M 1562.070313 1270.390625 C 1562.070313 1270.390625 1517.5 1357.695313 1495.117188 1380.117188 " transform="matrix(0.1,0,0,-0.1,0,366)"/>
</g>
</g>
<g clip-path="url(#clip31)" clip-rule="nonzero">
<g clip-path="url(#clip32)" clip-rule="nonzero">
<path style="fill:none;stroke-width:21.3457;stroke-linecap:butt;stroke-linejoin:miter;stroke:rgb(13.699341%,12.199402%,12.5%);stroke-opacity:1;stroke-miterlimit:3.86371;" d="M 1606.875 1272.421875 C 1606.875 1272.421875 1637.382813 1386.210938 1637.382813 1424.882813 " transform="matrix(0.1,0,0,-0.1,0,366)"/>
</g>
</g>
<g clip-path="url(#clip33)" clip-rule="nonzero">
<g clip-path="url(#clip34)" clip-rule="nonzero">
<path style="fill:none;stroke-width:21.3457;stroke-linecap:butt;stroke-linejoin:miter;stroke:rgb(13.699341%,12.199402%,12.5%);stroke-opacity:1;stroke-miterlimit:3.86371;" d="M 1625.15625 1258.164063 C 1625.15625 1258.164063 1832.382813 1376.015625 1899.53125 1384.179688 " transform="matrix(0.1,0,0,-0.1,0,366)"/>
</g>
</g>
<g clip-path="url(#clip35)" clip-rule="nonzero">
<g clip-path="url(#clip36)" clip-rule="nonzero">
<path style="fill:none;stroke-width:21.3457;stroke-linecap:butt;stroke-linejoin:miter;stroke:rgb(13.699341%,12.199402%,12.5%);stroke-opacity:1;stroke-miterlimit:3.86371;" d="M 1637.382813 1219.492188 C 1637.382813 1219.492188 1832.1875 1182.421875 1917.851563 1134.21875 C 2015.546875 1079.257813 2153.75 987.851563 2153.75 987.851563 " transform="matrix(0.1,0,0,-0.1,0,366)"/>
</g>
</g>
<g clip-path="url(#clip37)" clip-rule="nonzero">
<g clip-path="url(#clip38)" clip-rule="nonzero">
<path style="fill:none;stroke-width:21.3457;stroke-linecap:butt;stroke-linejoin:miter;stroke:rgb(13.699341%,12.199402%,12.5%);stroke-opacity:1;stroke-miterlimit:3.86371;" d="M 1629.257813 1191.015625 C 1629.257813 1191.015625 1751.171875 1018.398438 1791.875 892.226563 C 1831.210938 770.234375 1881.210938 550.703125 1881.210938 550.703125 " transform="matrix(0.1,0,0,-0.1,0,366)"/>
</g>
</g>
<g clip-path="url(#clip39)" clip-rule="nonzero">
<g clip-path="url(#clip40)" clip-rule="nonzero">
<path style="fill:none;stroke-width:21.3457;stroke-linecap:butt;stroke-linejoin:miter;stroke:rgb(13.699341%,12.199402%,12.5%);stroke-opacity:1;stroke-miterlimit:3.86371;" d="M 1570.234375 1174.921875 C 1570.234375 1174.921875 1515.46875 983.632813 1509.335938 861.679688 C 1503.242188 739.765625 1519.335938 546.640625 1519.335938 546.640625 " transform="matrix(0.1,0,0,-0.1,0,366)"/>
</g>
</g>
<g clip-path="url(#clip41)" clip-rule="nonzero">
<g clip-path="url(#clip42)" clip-rule="nonzero">
<path style="fill:none;stroke-width:21.3457;stroke-linecap:butt;stroke-linejoin:miter;stroke:rgb(13.699341%,12.199402%,12.5%);stroke-opacity:1;stroke-miterlimit:3.86371;" d="M 1533.59375 1209.335938 C 1533.59375 1209.335938 1367.070313 1093.359375 1322.304688 1052.8125 C 1277.539063 1012.304688 1240.898438 977.695313 1240.898438 977.695313 " transform="matrix(0.1,0,0,-0.1,0,366)"/>
</g>
</g>
<g clip-path="url(#clip43)" clip-rule="nonzero">
<g clip-path="url(#clip44)" clip-rule="nonzero">
<path style="fill:none;stroke-width:21.3457;stroke-linecap:butt;stroke-linejoin:miter;stroke:rgb(13.699341%,12.199402%,12.5%);stroke-opacity:1;stroke-miterlimit:3.86371;" d="M 1537.65625 1241.875 C 1537.65625 1241.875 1413.515625 1286.679688 1354.6875 1282.617188 " transform="matrix(0.1,0,0,-0.1,0,366)"/>
</g>
</g>
<path style="fill:none;stroke-width:21.3457;stroke-linecap:butt;stroke-linejoin:miter;stroke:rgb(13.699341%,12.199402%,12.5%);stroke-opacity:1;stroke-miterlimit:3.86371;" d="M 1261.5625 971.640625 C 1261.5625 1210.390625 1455.117188 1403.984375 1693.867188 1403.984375 C 1932.65625 1403.984375 2126.210938 1210.390625 2126.210938 971.640625 C 2126.210938 732.890625 1932.65625 539.335938 1693.867188 539.335938 C 1455.117188 539.335938 1261.5625 732.890625 1261.5625 971.640625 Z M 1261.5625 971.640625 " transform="matrix(0.1,0,0,-0.1,0,366)"/>
<path style="fill:none;stroke-width:45.3809;stroke-linecap:butt;stroke-linejoin:miter;stroke:rgb(13.699341%,12.199402%,12.5%);stroke-opacity:1;stroke-miterlimit:3.86369;" d="M 1704.726563 3193.515625 C 1704.726563 3193.515625 1539.492188 3176.71875 1374.21875 3265 C 1208.984375 3353.242188 1148.554688 3424.726563 1148.554688 3424.726563 C 1148.554688 3424.726563 911.5625 3281.289063 746.328125 3259.492188 C 581.09375 3237.65625 399.296875 3265 399.296875 3265 C 399.296875 3265 883.984375 2659.140625 520.390625 1976.09375 C 156.796875 1293.046875 -0.664063 1130.585938 300.234375 709.023438 C 520.390625 400.585938 1566.796875 367.5 1699.21875 367.5 C 1831.601563 367.5 2883.554688 400.585938 3103.710938 709.023438 C 3404.609375 1130.585938 3247.148438 1293.046875 2883.554688 1976.09375 C 2519.921875 2659.140625 3004.648438 3265 3004.648438 3265 C 3004.648438 3265 2822.851563 3237.65625 2657.617188 3259.492188 C 2492.34375 3281.289063 2255.390625 3424.726563 2255.390625 3424.726563 C 2255.390625 3424.726563 2194.960938 3353.242188 2029.726563 3265 C 1864.453125 3176.71875 1704.726563 3193.515625 1704.726563 3193.515625 Z M 1704.726563 3193.515625 " transform="matrix(0.1,0,0,-0.1,0,366)"/>
<path style=" stroke:none;fill-rule:nonzero;fill:rgb(13.699341%,12.199402%,12.5%);fill-opacity:1;" d="M 91.648438 195.886719 L 91.648438 178.859375 L 113.976563 178.859375 L 113.976563 174.324219 L 91.648438 174.324219 L 91.648438 162.359375 L 115.347656 162.359375 L 115.347656 157.824219 L 84.421875 157.824219 L 84.421875 195.886719 L 91.648438 195.886719 "/>
<path style=" stroke:none;fill-rule:nonzero;fill:rgb(13.699341%,12.199402%,12.5%);fill-opacity:1;" d="M 182.503906 167.632813 C 181.710938 160.828125 174.195313 157.246094 164.152344 157.035156 C 146.664063 156.664063 141.027344 167.523438 141.027344 176.855469 C 141.027344 187.503906 147.171875 196.679688 162.5625 196.679688 C 172.75 196.679688 181.566406 192.460938 182.289063 186.082031 L 174.699219 186.082031 C 173.832031 190.140625 168.777344 192.144531 163.214844 192.144531 C 151.867188 192.144531 148.617188 184.710938 148.617188 176.855469 C 148.617188 170.160156 151 161.566406 163.863281 161.566406 C 169.210938 161.566406 174.558594 163.992188 174.917969 167.632813 L 182.503906 167.632813 "/>
<path style=" stroke:none;fill-rule:evenodd;fill:rgb(13.699341%,12.199402%,12.5%);fill-opacity:1;" d="M 226.679688 162.359375 L 235.636719 162.359375 C 242.503906 162.199219 247.34375 163.097656 247.34375 168.105469 C 247.34375 173.113281 242.503906 174.011719 235.636719 173.851563 L 226.679688 173.851563 Z M 238.09375 195.886719 C 241.203125 195.941406 244.382813 195.886719 247.054688 195.148438 C 252.546875 193.671875 256.519531 190.351563 256.519531 185.925781 C 256.519531 181.179688 252.835938 176.804688 246.117188 176.066406 L 246.117188 175.960938 C 251.246094 174.90625 254.929688 171.691406 254.929688 167.734375 C 254.929688 160.355469 247.054688 157.824219 238.09375 157.824219 L 219.453125 157.824219 L 219.453125 195.886719 Z M 226.679688 178.386719 L 238.746094 178.386719 C 244.308594 178.386719 248.933594 180.175781 248.933594 184.867188 C 248.933594 189.5625 244.308594 191.355469 238.746094 191.355469 L 226.679688 191.355469 L 226.679688 178.386719 "/>
<path style=" stroke:none;fill-rule:nonzero;fill:rgb(13.699341%,12.199402%,12.5%);fill-opacity:1;" d="M 105.53125 194.308594 C 105.53125 192.132813 107.292969 190.367188 109.46875 190.367188 C 111.644531 190.367188 113.40625 192.132813 113.40625 194.308594 C 113.40625 196.480469 111.644531 198.246094 109.46875 198.246094 C 107.292969 198.246094 105.53125 196.480469 105.53125 194.308594 "/>
<path style=" stroke:none;fill-rule:nonzero;fill:rgb(13.699341%,12.199402%,12.5%);fill-opacity:1;" d="M 190.371094 194.308594 C 190.371094 192.132813 192.136719 190.367188 194.308594 190.367188 C 196.484375 190.367188 198.25 192.132813 198.25 194.308594 C 198.25 196.480469 196.484375 198.246094 194.308594 198.246094 C 192.136719 198.246094 190.371094 196.480469 190.371094 194.308594 "/>
<path style=" stroke:none;fill-rule:nonzero;fill:rgb(13.699341%,12.199402%,12.5%);fill-opacity:1;" d="M 260.300781 194.308594 C 260.300781 192.132813 262.0625 190.367188 264.238281 190.367188 C 266.414063 190.367188 268.179688 192.132813 268.179688 194.308594 C 268.179688 196.480469 266.414063 198.246094 264.238281 198.246094 C 262.0625 198.246094 260.300781 196.480469 260.300781 194.308594 "/>
<path style="fill:none;stroke-width:21.3457;stroke-linecap:butt;stroke-linejoin:miter;stroke:rgb(13.699341%,12.199402%,12.5%);stroke-opacity:1;stroke-miterlimit:3.86371;" d="M 1694.765625 2184.648438 L 1694.765625 3182.070313 " transform="matrix(0.1,0,0,-0.1,0,366)"/>
</g>
</svg>
